<svg aria-hidden="true" style="position: absolute; width: 0; height: 0; overflow: hidden;" version="1.1" xmlns="http://www.w3.org/2000/svg" xmlns:xlink="http://www.w3.org/1999/xlink">
<defs>
<symbol id="pl-html5" viewBox="0 0 128 128">
<title>html5</title>
<path fill="#E44D26" d="M19.037 113.876l-10.005-112.215h109.936l-10.016 112.198-45.019 12.48z"></path><path fill="#F16529" d="M64 116.8l36.378-10.086 8.559-95.878h-44.937z"></path><path fill="#EBEBEB" d="M64 52.455h-18.212l-1.258-14.094h19.47v-13.762h-34.511l.33 3.692 3.382 37.927h30.799zM64 88.198l-.061.017-15.327-4.14-.979-10.975h-13.817l1.928 21.609 28.193 7.826.063-.017z"></path><path fill="#fff" d="M63.952 52.455v13.763h16.947l-1.597 17.849-15.35 4.143v14.319l28.215-7.82.207-2.325 3.234-36.233.335-3.696h-3.708zM63.952 24.599v13.762h33.244l.276-3.092.628-6.978.329-3.692z"></path>
</symbol>

<symbol id="pl-css3" viewBox="0 0 128 128">
<title>css3</title>
<path fill="#1572B6" d="M18.814 114.123l-10.054-112.771h110.48l-10.064 112.754-45.243 12.543-45.119-12.526z"></path><path fill="#33A9DC" d="M64.001 117.062l36.559-10.136 8.601-96.354h-45.16v106.49z"></path><path fill="#fff" d="M64.001 51.429h18.302l1.264-14.163h-19.566v-13.831h34.681999999999995l-.332 3.711-3.4 38.114h-30.95v-13.831z"></path><path fill="#EBEBEB" d="M64.083 87.349l-.061.018-15.403-4.159-.985-11.031h-13.882l1.937 21.717 28.331 7.863.063-.018v-14.39z"></path><path fill="#fff" d="M81.127 64.675l-1.666 18.522-15.426 4.164v14.39l28.354-7.858.208-2.337 2.406-26.881h-13.876z"></path><path fill="#EBEBEB" d="M64.048 23.435v13.831000000000001h-33.407999999999994l-.277-3.108-.63-7.012-.331-3.711h34.646zM64.001 51.431v13.831000000000001h-15.209l-.277-3.108-.631-7.012-.33-3.711h16.447z"></path>
</symbol>

<symbol id="pl-javascript" viewBox="0 0 128 128">
<title>javascript</title>
<path fill="#F0DB4F" d="M1.408 1.408h125.184v125.185h-125.184z"></path><path fill="#323330" d="M116.347 96.736c-.917-5.711-4.641-10.508-15.672-14.981-3.832-1.761-8.104-3.022-9.377-5.926-.452-1.69-.512-2.642-.226-3.665.821-3.32 4.784-4.355 7.925-3.403 2.023.678 3.938 2.237 5.093 4.724 5.402-3.498 5.391-3.475 9.163-5.879-1.381-2.141-2.118-3.129-3.022-4.045-3.249-3.629-7.676-5.498-14.756-5.355l-3.688.477c-3.534.893-6.902 2.748-8.877 5.235-5.926 6.724-4.236 18.492 2.975 23.335 7.104 5.332 17.54 6.545 18.873 11.531 1.297 6.104-4.486 8.08-10.234 7.378-4.236-.881-6.592-3.034-9.139-6.949-4.688 2.713-4.688 2.713-9.508 5.485 1.143 2.499 2.344 3.63 4.26 5.795 9.068 9.198 31.76 8.746 35.83-5.176.165-.478 1.261-3.666.38-8.581zm-46.885-37.793h-11.709l-.048 30.272c0 6.438.333 12.34-.714 14.149-1.713 3.558-6.152 3.117-8.175 2.427-2.059-1.012-3.106-2.451-4.319-4.485-.333-.584-.583-1.036-.667-1.071l-9.52 5.83c1.583 3.249 3.915 6.069 6.902 7.901 4.462 2.678 10.459 3.499 16.731 2.059 4.082-1.189 7.604-3.652 9.448-7.401 2.666-4.915 2.094-10.864 2.07-17.444.06-10.735.001-21.468.001-32.237z"></path>
</symbol>

<symbol id="pl-sass" viewBox="0 0 128 128">
<title>sass</title>
<path fill-rule="evenodd" clip-rule="evenodd" fill="#CB6699" d="M1.219 56.156c0 .703.207 1.167.323 1.618.756 2.933 2.381 5.45 4.309 7.746 2.746 3.272 6.109 5.906 9.554 8.383 2.988 2.148 6.037 4.248 9.037 6.38.515.366 1.002.787 1.561 1.236-.481.26-.881.489-1.297.7-3.959 2.008-7.768 4.259-11.279 6.986-2.116 1.644-4.162 3.391-5.607 5.674-2.325 3.672-3.148 7.584-1.415 11.761.506 1.22 1.278 2.274 2.367 3.053.353.252.749.502 1.162.6 1.058.249 2.136.412 3.207.609l3.033-.002c3.354-.299 6.407-1.448 9.166-3.352 4.312-2.976 7.217-6.966 8.466-12.087.908-3.722.945-7.448-.125-11.153-.099-.344-.224-.681-.354-1.014-.13-.333-.283-.657-.463-1.072l6.876-3.954.103.088c-.125.409-.258.817-.371 1.23-.817 2.984-1.36 6.02-1.165 9.117.208 3.3 1.129 6.389 3.061 9.146 1.562 2.23 5.284 2.313 6.944.075.589-.795 1.16-1.626 1.589-2.513 1.121-2.315 2.159-4.671 3.23-7.011l.187-.428c-.077 1.108-.167 2.081-.208 3.055-.064 1.521.025 3.033.545 4.48.445 1.238 1.202 2.163 2.62 2.326.97.111 1.743-.333 2.456-.896 1.114-.879 2.019-1.965 2.691-3.199 1.901-3.491 3.853-6.961 5.576-10.54 1.864-3.871 3.494-7.855 5.225-11.792l.286-.698c.409 1.607.694 3.181 1.219 4.671.61 1.729 1.365 3.417 2.187 5.058.389.775.344 1.278-.195 1.928-2.256 2.72-4.473 5.473-6.692 8.223-.491.607-.98 1.225-1.389 1.888-.247.403-.411.894-.48 1.364-.133.898.422 1.764 1.383 1.971.878.189 1.813.259 2.708.193 3.097-.228 5.909-1.315 8.395-3.157 3.221-2.386 4.255-5.642 3.475-9.501-.211-1.047-.584-2.065-.947-3.074-.163-.455-.174-.774.123-1.198 2.575-3.677 4.775-7.578 6.821-11.569.081-.157.164-.314.306-.482.663 3.45 1.661 6.775 3.449 9.792-.912.879-1.815 1.676-2.632 2.554-1.799 1.934-3.359 4.034-4.173 6.595-.35 1.104-.619 2.226-.463 3.405.242 1.831 1.742 3.021 3.543 2.604 3.854-.892 7.181-2.708 9.612-5.925 1.636-2.166 1.785-4.582 1.1-7.113-.188-.688-.411-1.365-.651-2.154.951-.295 1.878-.649 2.837-.868 4.979-1.136 9.904-.938 14.702.86 2.801 1.05 5.064 2.807 6.406 5.571 1.639 3.379.733 6.585-2.452 8.721-.297.199-.637.356-.883.605-.151.153-.242.459-.205.67.021.123.346.277.533.275 1.047-.008 1.896-.557 2.711-1.121 2.042-1.413 3.532-3.314 3.853-5.817l.063-.188-.077-1.63c-.031-.094.023-.187.016-.258-.434-3.645-2.381-6.472-5.213-8.688-3.28-2.565-7.153-3.621-11.249-3.788-3.338-.136-6.619.36-9.765 1.503-.897.325-1.786.71-2.688 1.073-.121-.219-.251-.429-.358-.646-.926-1.896-2.048-3.708-2.296-5.882-.176-1.544-.392-3.086-.025-4.613.353-1.469.813-2.913 1.246-4.362.223-.746.066-1.164-.646-1.5-.248-.117-.518-.219-.786-.258-1.75-.254-3.476-.109-5.171.384-.6.175-1.036.511-1.169 1.175-.076.381-.231.746-.339 1.122-.443 1.563-.757 3.156-1.473 4.645-1.794 3.735-3.842 7.329-5.938 10.897-.227.385-.466.763-.752 1.23-.736-1.54-1.521-2.922-1.759-4.542-.269-1.832-.481-3.661-.025-5.479.339-1.356.782-2.687 1.19-4.025.193-.636.104-.97-.472-1.305-.291-.169-.62-.319-.948-.368-1.815-.269-3.603-.128-5.354.438-.543.176-.828.527-.994 1.087-.488 1.652-.904 3.344-1.589 4.915-2.774 6.36-5.628 12.687-8.479 19.013-.595 1.321-1.292 2.596-1.963 3.882-.17.326-.418.613-.63.919-.17-.201-.236-.339-.235-.477.005-.813-.092-1.65.063-2.436.469-2.378 1.009-4.743 1.578-7.099.47-1.946 1.017-3.874 1.538-5.807.175-.647.178-1.252-.287-1.796-.781-.911-2.413-1.111-3.381-.409l-.428.242.083-.69c.204-1.479.245-2.953-.161-4.41-.506-1.816-1.802-2.861-3.686-2.803-.878.027-1.8.177-2.613.497-3.419 1.34-6.048 3.713-8.286 6.568-.203.259-.471.495-.757.654-2.893 1.604-5.795 3.188-8.696 4.778l-3.229 1.769c-.866-.826-1.653-1.683-2.546-2.41-2.727-2.224-5.498-4.393-8.244-6.592-2.434-1.949-4.792-3.979-6.596-6.56-1.342-1.92-2.207-4.021-2.29-6.395-.105-3.025.753-5.789 2.293-8.362 1.97-3.292 4.657-5.934 7.611-8.327 3.125-2.53 6.505-4.678 10.008-6.639 4.901-2.743 9.942-5.171 15.347-6.774 5.542-1.644 11.165-2.585 16.965-1.929 2.28.258 4.494.78 6.527 1.895 1.557.853 2.834 1.97 3.428 3.716.586 1.718.568 3.459.162 5.204-.825 3.534-2.76 6.447-5.195 9.05-3.994 4.267-8.866 7.172-14.351 9.091-3.165 1.107-6.421 1.802-9.765 2.083-2.729.229-5.401-.013-7.985-.962-1.711-.629-3.201-1.591-4.399-2.987-.214-.25-.488-.521-.887-.287-.391.23-.46.602-.329.979.219.626.421 1.278.762 1.838.857 1.405 2.107 2.424 3.483 3.298 2.643 1.681 5.597 2.246 8.66 2.377 4.648.201 9.183-.493 13.654-1.74 6.383-1.78 11.933-4.924 16.384-9.884 3.706-4.13 6.353-8.791 6.92-14.419.277-2.747-.018-5.438-1.304-7.944-1.395-2.715-3.613-4.734-6.265-6.125-3.862-2.025-8.03-3.204-12.332-3.204h-4.31c-5.21 0-10.247 1.493-15.143 3.274-3.706 1.349-7.34 2.941-10.868 4.703-7.683 3.839-14.838 8.468-20.715 14.833-2.928 3.171-5.407 6.67-6.833 10.79-.417 1.206-.813 2.499-1.111 3.746m27.839 36.013c-.333 4.459-2.354 8.074-5.657 11.002-1.858 1.646-3.989 2.818-6.471 3.23-.9.149-1.821.185-2.694-.188-1.245-.532-1.524-1.637-1.548-2.814-.037-1.876.62-3.572 1.521-5.186 1.176-2.104 2.9-3.708 4.741-5.206 2.9-2.361 6.046-4.359 9.268-6.245l.243-.1c.498 1.84.735 3.657.597 5.507zm25.158-19.379c-.235 1.424-.529 2.849-.945 4.229-1.438 4.777-3.285 9.406-5.282 13.973-.369.845-.906 1.616-1.373 2.417-.072.124-.179.231-.283.334-.578.571-1.126.541-1.418-.206-.34-.868-.549-1.797-.729-2.716-.121-.617-.092-1.265-.13-1.897.039-4.494 1.41-8.578 3.736-12.38.959-1.568 2.003-3.062 3.598-4.054.49-.305 1.04-.55 1.595-.706.85-.239 1.372.154 1.231 1.006zm17.164 21.868l6.169-7.203c.257 2.675-4.29 8.015-6.169 7.203zm19.703-4.847c-.436.25-.911.43-1.358.661-.409.212-.544-.002-.556-.354-.008-.239.027-.489.093-.721.833-2.938 2.366-5.446 4.647-7.486l.16-.082c1.085 3.035-.169 6.368-2.986 7.982z"></path>
</symbol>

<symbol id="pl-react" viewBox="0 0 128 128">
<title>react</title>
<path d="M107.3 45.2c-2.2-.8-4.5-1.6-6.9-2.3.6-2.4 1.1-4.8 1.5-7.1 2.1-13.2-.2-22.5-6.6-26.1-1.9-1.1-4-1.6-6.4-1.6-7 0-15.9 5.2-24.9 13.9-9-8.7-17.9-13.9-24.9-13.9-2.4 0-4.5.5-6.4 1.6-6.4 3.7-8.7 13-6.6 26.1.4 2.3.9 4.7 1.5 7.1-2.4.7-4.7 1.4-6.9 2.3-12.5 4.8-19.3 11.4-19.3 18.8s6.9 14 19.3 18.8c2.2.8 4.5 1.6 6.9 2.3-.6 2.4-1.1 4.8-1.5 7.1-2.1 13.2.2 22.5 6.6 26.1 1.9 1.1 4 1.6 6.4 1.6 7.1 0 16-5.2 24.9-13.9 9 8.7 17.9 13.9 24.9 13.9 2.4 0 4.5-.5 6.4-1.6 6.4-3.7 8.7-13 6.6-26.1-.4-2.3-.9-4.7-1.5-7.1 2.4-.7 4.7-1.4 6.9-2.3 12.5-4.8 19.3-11.4 19.3-18.8s-6.8-14-19.3-18.8zm-14.8-30.5c4.1 2.4 5.5 9.8 3.8 20.3-.3 2.1-.8 4.3-1.4 6.6-5.2-1.2-10.7-2-16.5-2.5-3.4-4.8-6.9-9.1-10.4-13 7.4-7.3 14.9-12.3 21-12.3 1.3 0 2.5.3 3.5.9zm-11.2 59.3c-1.8 3.2-3.9 6.4-6.1 9.6-3.7.3-7.4.4-11.2.4-3.9 0-7.6-.1-11.2-.4-2.2-3.2-4.2-6.4-6-9.6-1.9-3.3-3.7-6.7-5.3-10 1.6-3.3 3.4-6.7 5.3-10 1.8-3.2 3.9-6.4 6.1-9.6 3.7-.3 7.4-.4 11.2-.4 3.9 0 7.6.1 11.2.4 2.2 3.2 4.2 6.4 6 9.6 1.9 3.3 3.7 6.7 5.3 10-1.7 3.3-3.4 6.6-5.3 10zm8.3-3.3c1.5 3.5 2.7 6.9 3.8 10.3-3.4.8-7 1.4-10.8 1.9 1.2-1.9 2.5-3.9 3.6-6 1.2-2.1 2.3-4.2 3.4-6.2zm-25.6 27.1c-2.4-2.6-4.7-5.4-6.9-8.3 2.3.1 4.6.2 6.9.2 2.3 0 4.6-.1 6.9-.2-2.2 2.9-4.5 5.7-6.9 8.3zm-18.6-15c-3.8-.5-7.4-1.1-10.8-1.9 1.1-3.3 2.3-6.8 3.8-10.3 1.1 2 2.2 4.1 3.4 6.1 1.2 2.2 2.4 4.1 3.6 6.1zm-7-25.5c-1.5-3.5-2.7-6.9-3.8-10.3 3.4-.8 7-1.4 10.8-1.9-1.2 1.9-2.5 3.9-3.6 6-1.2 2.1-2.3 4.2-3.4 6.2zm25.6-27.1c2.4 2.6 4.7 5.4 6.9 8.3-2.3-.1-4.6-.2-6.9-.2-2.3 0-4.6.1-6.9.2 2.2-2.9 4.5-5.7 6.9-8.3zm22.2 21l-3.6-6c3.8.5 7.4 1.1 10.8 1.9-1.1 3.3-2.3 6.8-3.8 10.3-1.1-2.1-2.2-4.2-3.4-6.2zm-54.5-16.2c-1.7-10.5-.3-17.9 3.8-20.3 1-.6 2.2-.9 3.5-.9 6 0 13.5 4.9 21 12.3-3.5 3.8-7 8.2-10.4 13-5.8.5-11.3 1.4-16.5 2.5-.6-2.3-1-4.5-1.4-6.6zm-24.7 29c0-4.7 5.7-9.7 15.7-13.4 2-.8 4.2-1.5 6.4-2.1 1.6 5 3.6 10.3 6 15.6-2.4 5.3-4.5 10.5-6 15.5-13.8-4-22.1-10-22.1-15.6zm28.5 49.3c-4.1-2.4-5.5-9.8-3.8-20.3.3-2.1.8-4.3 1.4-6.6 5.2 1.2 10.7 2 16.5 2.5 3.4 4.8 6.9 9.1 10.4 13-7.4 7.3-14.9 12.3-21 12.3-1.3 0-2.5-.3-3.5-.9zm60.8-20.3c1.7 10.5.3 17.9-3.8 20.3-1 .6-2.2.9-3.5.9-6 0-13.5-4.9-21-12.3 3.5-3.8 7-8.2 10.4-13 5.8-.5 11.3-1.4 16.5-2.5.6 2.3 1 4.5 1.4 6.6zm9-15.6c-2 .8-4.2 1.5-6.4 2.1-1.6-5-3.6-10.3-6-15.6 2.4-5.3 4.5-10.5 6-15.5 13.8 4 22.1 10 22.1 15.6 0 4.7-5.8 9.7-15.7 13.4z"></path>
</symbol>

<symbol id="pl-php" viewBox="0 0 128 128">
<title>php</title>
<path fill="#6181B6" d="M64 33.039c-33.74 0-61.094 13.862-61.094 30.961s27.354 30.961 61.094 30.961 61.094-13.862 61.094-30.961-27.354-30.961-61.094-30.961zm-15.897 36.993c-1.458 1.364-3.077 1.927-4.86 2.507-1.783.581-4.052.461-6.811.461h-6.253l-1.733 10h-7.301l6.515-34h14.04c4.224 0 7.305 1.215 9.242 3.432 1.937 2.217 2.519 5.364 1.747 9.337-.319 1.637-.856 3.159-1.614 4.515-.759 1.357-1.75 2.624-2.972 3.748zm21.311 2.968l2.881-14.42c.328-1.688.208-2.942-.361-3.555-.57-.614-1.782-1.025-3.635-1.025h-5.79l-3.731 19h-7.244l6.515-33h7.244l-1.732 9h6.453c4.061 0 6.861.815 8.402 2.231s2.003 3.356 1.387 6.528l-3.031 15.241h-7.358zm40.259-11.178c-.318 1.637-.856 3.133-1.613 4.488-.758 1.357-1.748 2.598-2.971 3.722-1.458 1.364-3.078 1.927-4.86 2.507-1.782.581-4.053.461-6.812.461h-6.253l-1.732 10h-7.301l6.514-34h14.041c4.224 0 7.305 1.215 9.241 3.432 1.935 2.217 2.518 5.418 1.746 9.39zM95.919 54h-5.001l-2.727 14h4.442c2.942 0 5.136-.29 6.576-1.4 1.442-1.108 2.413-2.828 2.918-5.421.484-2.491.264-4.434-.66-5.458-.925-1.024-2.774-1.721-5.548-1.721zM38.934 54h-5.002l-2.727 14h4.441c2.943 0 5.136-.29 6.577-1.4 1.441-1.108 2.413-2.828 2.917-5.421.484-2.491.264-4.434-.66-5.458s-2.772-1.721-5.546-1.721z"></path>
</symbol>

<symbol id="pl-python" viewBox="0 0 128 128">
<title>python</title>
<path fill="#4D7BA9" d="M63.391 1.988c-4.222.02-8.252.379-11.8 1.007-10.45 1.846-12.346 5.71-12.346 12.837v9.411h24.693v3.137h-33.961c-7.176 0-13.46 4.313-15.426 12.521-2.268 9.405-2.368 15.275 0 25.096 1.755 7.311 5.947 12.519 13.124 12.519h8.491v-11.282c0-8.151 7.051-15.34 15.426-15.34h24.665c6.866 0 12.346-5.654 12.346-12.548v-23.513c0-6.693-5.646-11.72-12.346-12.837-4.244-.706-8.645-1.027-12.866-1.008zm-13.354 7.569c2.55 0 4.634 2.117 4.634 4.721 0 2.593-2.083 4.69-4.634 4.69-2.56 0-4.633-2.097-4.633-4.69-.001-2.604 2.073-4.721 4.633-4.721z"></path><path fill="#FFD845" d="M91.682 28.38v10.966c0 8.5-7.208 15.655-15.426 15.655h-24.665c-6.756 0-12.346 5.783-12.346 12.549v23.515c0 6.691 5.818 10.628 12.346 12.547 7.816 2.297 15.312 2.713 24.665 0 6.216-1.801 12.346-5.423 12.346-12.547v-9.412h-24.664v-3.138h37.012c7.176 0 9.852-5.005 12.348-12.519 2.578-7.735 2.467-15.174 0-25.096-1.774-7.145-5.161-12.521-12.348-12.521h-9.268zm-13.873 59.547c2.561 0 4.634 2.097 4.634 4.692 0 2.602-2.074 4.719-4.634 4.719-2.55 0-4.633-2.117-4.633-4.719 0-2.595 2.083-4.692 4.633-4.692z"></path><path opacity=".444" fill="url(#c)" enable-background="new" d="M97.309 119.597c0 3.543-14.816 6.416-33.091 6.416-18.276 0-33.092-2.873-33.092-6.416 0-3.544 14.815-6.417 33.092-6.417 18.275 0 33.091 2.872 33.091 6.417z"></path>
</symbol>

<symbol id="pl-drupal" viewBox="0 0 128 128">
<title>drupal</title>
<path fill="#0073BA" d="M66.835 101.194h-5.009l.009 9.371c0 2.739-1.174 4.955-3.913 4.955s-3.924-2.216-3.924-4.955v-9.362h-4.996l-.001 9.362c0 5.412 3.479 9.798 8.891 9.798 5.411 0 8.941-4.386 8.941-9.798l.002-9.371zM111.995 95.484h4.984v24.395h-4.984zM44.929 100.991c-4.296-.992-7.006 3.276-7.118 3.505-.056.112-.058.178-.249.173-.156-.004-.175-.173-.175-.173l-.533-3.266h-4.463v18.632h5.004v-10.085c0-.822 2.219-4.774 6.519-3.757 2.175.514 3.097 1.436 3.097 1.436v-5.676c-.805-.419-1.357-.622-2.082-.789zM73.626 126v-6.704l.002.001v-2.51s.008-.201.189-.204c.161-.002.197.106.237.204.379.943 2.466 4.541 7.097 3.412 4.145-1.168 7.186-4.975 7.186-9.495 0-5.446-4.417-9.864-9.865-9.864s-9.864 4.418-9.864 9.864v15.295l5.018.001zm4.851-20.287c2.758 0 4.994 2.235 4.994 4.991 0 2.759-2.235 4.995-4.994 4.995-2.758 0-4.993-2.235-4.993-4.995 0-2.756 2.235-4.991 4.993-4.991zM104.954 119.872h5.018v-9.168c0-5.446-4.415-9.863-9.864-9.863-5.448 0-9.865 4.417-9.865 9.863 0 4.521 3.042 8.327 7.187 9.495 4.631 1.129 6.717-2.468 7.097-3.412.04-.098.075-.205.237-.203.182.002.188.203.188.203m.144-6.083c0 2.759-2.236 4.995-4.993 4.995s-4.994-2.235-4.994-4.995c0-2.756 2.236-4.991 4.994-4.991s4.993 2.235 4.993 4.991zM16.713 119.833h-5.692v-24.358h6.108c7.396 0 13.006 1.357 13.006 12.178 0 10.719-5.943 12.18-13.422 12.18zm1.36-20.136h-2.012v15.909l2.066.053c4.238 0 6.967-.386 6.967-8.007 0-7.306-2.409-7.955-7.021-7.955z"></path><path fill="#00598E" d="M83.539 20.706c-4.58-2.853-8.901-3.975-13.221-6.826-2.679-1.815-6.395-6.136-9.506-9.852-.604 5.962-2.419 8.383-4.493 10.11-4.407 3.457-7.173 4.494-10.975 6.567-3.198 1.643-20.566 12.012-20.566 34.306s18.752 38.713 39.577 38.713c20.826 0 38.886-15.122 38.886-38.021s-16.937-33.268-19.702-34.997z"></path><path fill="#fff" d="M76.52 74.358c1.382 0 2.852.086 3.889.777 1.037.691 1.642 2.248 1.987 3.111.346.863 0 1.382-.691 1.728-.604.346-.691.173-1.296-.949-.605-1.124-1.124-2.248-4.148-2.248s-3.975 1.037-5.444 2.248c-1.469 1.21-1.988 1.642-2.506.949-.518-.691-.346-1.382.604-2.247.951-.864 2.506-2.245 3.975-2.852 1.47-.603 2.248-.517 3.63-.517zM62.176 84.209c1.729 1.382 4.32 2.506 9.851 2.506s9.419-1.556 11.147-2.852c.778-.605 1.123-.085 1.21.259.086.347.259.865-.346 1.469-.432.433-4.407 3.198-9.073 3.631-4.667.431-10.974.691-14.777-2.766-.604-.605-.431-1.469 0-1.814.433-.346.779-.605 1.296-.605.518-.001.433-.001.692.172z"></path><path fill="#0073BA" d="M41.005 77.642c6.567-.086 7.777-1.21 13.566-3.801 31.282-13.999 37.07-26.789 38.194-29.727 1.123-2.938 2.765-7.691 1.037-12.962-.333-1.019-.578-1.835-.753-2.493-4.157-4.647-8.284-7.184-9.53-7.962-4.494-2.853-8.9-3.977-13.222-6.828-2.678-1.728-6.394-6.135-9.504-9.85-.606 5.96-2.333 8.468-4.495 10.108-4.406 3.458-7.171 4.494-10.974 6.569-3.197 1.727-20.566 12.01-20.566 34.305 0 7.117 1.912 13.637 5.192 19.215l.857-.032c1.816 1.643 4.667 3.544 10.198 3.458z"></path><path fill="#004975" d="M83.52 20.697c-4.494-2.853-8.9-3.977-13.222-6.828-2.678-1.728-6.394-6.135-9.504-9.85-.606 5.96-2.333 8.468-4.495 10.108-4.406 3.458-7.171 4.494-10.974 6.569-3.197 1.727-20.566 12.01-20.566 34.305 0 7.117 1.912 13.637 5.192 19.215 6.994 11.891 20.208 19.498 34.384 19.498 20.826 0 38.886-15.122 38.886-38.021 0-12.576-5.107-21.371-10.171-27.034-4.157-4.647-8.284-7.183-9.53-7.962zm10.503 10.115c5.673 7.094 8.551 15.465 8.551 24.882 0 5.465-1.042 10.626-3.094 15.343-1.947 4.475-4.751 8.438-8.333 11.781-7.083 6.61-16.604 10.249-26.811 10.249-5.049 0-10.003-.965-14.727-2.867-4.639-1.868-8.82-4.544-12.425-7.952-7.594-7.178-11.776-16.854-11.776-27.245 0-9.256 3.004-17.48 8.93-24.445 4.526-5.32 9.408-8.269 11.296-9.29.917-.5 1.777-.942 2.609-1.368 2.607-1.338 5.07-2.603 8.458-5.26 1.806-1.372 3.73-3.546 4.549-9.068 2.855 3.396 6.167 7.21 8.698 8.844 2.247 1.483 4.551 2.522 6.78 3.527 2.107.95 4.288 1.933 6.445 3.302l.082.05c6.304 3.935 9.663 8.137 10.768 9.517z"></path><path fill="#93C5E4" d="M61.225 5.747c1.209 3.542 1.037 5.357 1.037 6.136 0 .777-.432 2.852-1.815 3.888-.605.433-.777.777-.777.865 0 .344.777.604.777 1.381 0 .951-.431 2.853-5.011 7.432-4.58 4.58-11.147 8.642-16.246 11.146-5.098 2.507-7.517 2.335-8.208 1.125-.692-1.21.259-3.889 3.456-7.432 3.197-3.544 13.308-8.642 13.308-8.642l12.617-8.813.69-3.37"></path><path fill="#fff" d="M61.225 5.659c-.778 5.704-2.506 7.434-4.839 9.246-3.889 2.939-7.69 4.753-8.555 5.186-2.247 1.123-10.369 5.617-14.604 12.099-1.296 1.987 0 2.765.259 2.938.26.173 3.197.519 9.505-3.283 6.309-3.803 9.074-6.049 12.617-9.765 1.901-1.988 2.16-3.111 2.16-3.63 0-.604-.432-.863-1.123-1.037-.347-.086-.432-.259 0-.518s2.246-1.124 2.679-1.469c.432-.347 2.506-1.728 2.592-3.976.086-2.247-.086-3.803-.691-5.791zM41.782 68.481c.086-6.74 6.395-13.048 14.345-13.135 10.11-.085 17.109 10.024 22.208 9.938 4.32-.086 12.616-8.554 16.678-8.554 4.32 0 5.531 4.494 5.531 7.172 0 2.679-.865 7.518-2.939 10.542s-3.37 4.148-5.789 3.975c-3.111-.259-9.333-9.938-13.308-10.109-5.011-.173-15.9 10.455-24.455 10.455-5.184 0-6.739-.776-8.468-1.901-2.593-1.814-3.889-4.581-3.803-8.383z"></path><path d="M93.803 31.152c1.728 5.271.086 10.023-1.037 12.962-1.124 2.938-6.913 15.728-38.194 29.727-5.79 2.591-7 3.715-13.566 3.801-5.531.086-8.382-1.814-10.197-3.457l-.857.032c6.994 11.891 20.208 19.498 34.384 19.498 20.826 0 38.886-15.122 38.886-38.021 0-12.576-5.107-21.371-10.171-27.034.174.657.418 1.474.752 2.492z" fill="none"></path>
</symbol>

<symbol id="pl-jquery" viewBox="0 0 128 128">
<title>jquery</title>
<path fill="#0868AC" d="M27.758 20.421c-7.352 10.565-6.437 24.312-.82 35.54l.411.798.263.506.164.291.293.524c.174.307.353.612.536.919l.306.504c.203.326.41.65.622.973l.265.409c.293.437.592.872.901 1.301l.026.033.152.205c.267.368.542.732.821 1.093l.309.393c.249.313.502.623.759.934l.29.346c.345.406.698.812 1.057 1.208l.021.022.041.045c.351.383.71.758 1.075 1.133l.344.347c.282.284.569.563.858.841l.351.334c.387.364.777.722 1.176 1.07l.018.016.205.174c.351.305.708.605 1.068.902l.442.353c.294.235.591.468.89.696l.477.361c.33.243.663.482.999.717l.363.258.101.072c.318.22.645.431.97.642l.42.28c.5.315 1.007.628 1.519.93l.42.237c.377.217.756.431 1.14.639l.631.326.816.424.188.091.334.161c.427.204.858.405 1.293.599l.273.122c.498.218 1.001.427 1.508.628l.368.144c.469.182.945.359 1.423.527l.179.062c.524.184 1.054.353 1.587.52l.383.114c.542.164 1.079.358 1.638.462 35.553 6.483 45.88-21.364 45.88-21.364-8.674 11.3-24.069 14.28-38.656 10.962-.553-.125-1.089-.298-1.628-.456l-.406-.124c-.526-.161-1.049-.33-1.568-.51l-.215-.077c-.465-.164-.924-.336-1.382-.513l-.388-.152c-.501-.198-1-.405-1.492-.62l-.298-.133c-.423-.191-.842-.384-1.259-.585l-.364-.175c-.327-.159-.65-.328-.974-.495l-.649-.341c-.395-.21-.782-.43-1.167-.654l-.394-.219c-.513-.303-1.019-.615-1.52-.932l-.41-.273c-.363-.234-.725-.473-1.081-.719l-.349-.245c-.344-.242-.685-.489-1.022-.738l-.453-.343c-.31-.237-.618-.476-.922-.721l-.411-.33c-.388-.318-.771-.64-1.149-.969l-.126-.105c-.409-.359-.811-.728-1.208-1.098l-.34-.328c-.294-.279-.584-.561-.868-.851l-.34-.34c-.362-.37-.717-.745-1.065-1.126l-.053-.057c-.368-.402-.728-.813-1.08-1.229l-.283-.336c-.263-.316-.523-.638-.777-.961l-.285-.355c-.307-.397-.605-.793-.898-1.195-8.098-11.047-11.008-26.283-4.535-38.795M50.578 11.519c-5.316 7.65-5.028 17.893-.88 25.983.695 1.356 1.477 2.673 2.351 3.925.796 1.143 1.68 2.501 2.737 3.418.383.422.784.834 1.193 1.238l.314.311c.397.385.801.764 1.218 1.132l.05.043.012.012c.462.405.939.794 1.423 1.178l.323.252c.486.372.981.738 1.489 1.087l.043.033.68.447.322.213c.363.233.73.459 1.104.676l.156.092c.322.185.648.367.975.545l.347.18.682.354.103.047c.469.23.941.453 1.424.663l.314.13c.386.163.775.323 1.167.473l.5.184c.356.132.712.253 1.072.373l.484.155c.511.158 1.017.359 1.549.448 27.45 4.547 33.787-16.588 33.787-16.588-5.712 8.228-16.775 12.153-28.58 9.089-.524-.138-1.042-.288-1.555-.449l-.467-.151c-.365-.117-.728-.243-1.087-.374l-.491-.183c-.394-.152-.784-.309-1.171-.473l-.315-.133c-.485-.211-.962-.434-1.432-.666l-.718-.365-.414-.213c-.306-.166-.61-.338-.909-.514l-.217-.123c-.372-.217-.738-.44-1.1-.672l-.332-.221-.712-.472c-.506-.349-.999-.714-1.484-1.085l-.334-.264c-5.167-4.079-9.263-9.655-11.21-15.977-2.041-6.557-1.601-13.917 1.935-19.891M69.771 4.868c-3.134 4.612-3.442 10.341-1.267 15.435 2.293 5.407 6.992 9.648 12.477 11.66l.682.235.3.096c.323.102.644.22.978.282 15.157 2.929 19.268-7.777 20.362-9.354-3.601 5.185-9.653 6.43-17.079 4.627-.586-.142-1.231-.354-1.796-.555-.725-.259-1.439-.553-2.134-.886-1.318-.634-2.575-1.402-3.741-2.282-6.645-5.042-10.772-14.659-6.436-22.492"></path><path fill="#131B28" d="M66.359 96.295h-4.226c-.234 0-.467.188-.517.417l-1.5 6.94-1.5 6.94c-.049.229-.282.417-.516.417h-2.991c-2.959 0-2.617-2.047-2.011-4.851l.018-.085.066-.354.012-.066.135-.72.145-.771.154-.785.682-3.332.683-3.332c.047-.23-.107-.419-.341-.419h-4.337c-.234 0-.466.188-.514.418l-.933 4.424-.932 4.425-.002.006-.086.412c-1.074 4.903-.79 9.58 5.048 9.727l.17.003h9.163c.234 0 .467-.188.516-.417l1.976-9.289 1.976-9.29c.049-.23-.103-.417-.338-.418zM21.103 96.246h-4.64c-.235 0-.469.188-.521.416l-.44 1.942-.44 1.942c-.051.229.098.416.333.416h4.676c.235 0 .468-.188.518-.417l.425-1.941.425-1.941c.049-.229-.101-.417-.336-.417zM19.757 102.29h-4.677c-.234 0-.469.188-.521.416l-.657 2.91-.656 2.909-.183.834-.631 2.97-.63 2.971c-.049.229-.15.599-.225.821 0 0-.874 2.6-2.343 2.57l-.184-.004-1.271-.023h-.001c-.234-.003-.469.18-.524.407l-.485 2.039-.484 2.038c-.055.228.093.416.326.42.833.01 2.699.031 3.828.031 3.669 0 5.604-2.033 6.843-7.883l1.451-6.714 1.361-6.297c.049-.227-.103-.415-.337-.415zM105.874 100.716l-.194-.801-.191-.82-.097-.414c-.38-1.477-1.495-2.328-3.917-2.328l-3.77-.004-3.472-.005h-3.907c-.234 0-.466.188-.515.417l-.173.816-.204.964-.057.271-1.759 8.24-1.67 7.822c-.05.23-.066.512-.038.626.028.115.479.209.713.209h3.524c.235 0 .532-.042.66-.094s.317-.513.364-.742l.626-3.099.627-3.1.001-.005.084-.413.76-3.56.671-3.144c.05-.229.281-.416.515-.417l11.089-.005c.235.002.383-.185.33-.414zM120.149 93.476l-.854.003h-3.549c-.235 0-.536.159-.667.353l-7.849 11.498c-.132.194-.283.166-.335-.062l-.578-2.533c-.052-.229-.287-.416-.522-.416h-5.045c-.235 0-.374.184-.31.409l2.261 7.921c.064.226.069.596.011.824l-.985 3.833c-.059.228.085.413.32.413h4.987c.234 0 .474-.186.532-.413l.986-3.833c.058-.229.221-.567.363-.755l12.742-16.911c.142-.188.065-.341-.169-.339l-1.339.008zM80.063 103.395v-.004c-.029.254-.264.441-.499.441h-6.397c-.222 0-.334-.15-.301-.336l.006-.015-.004.002.003-.021.029-.109c.611-1.624 1.855-2.69 4.194-2.69 2.634-.001 3.148 1.285 2.969 2.732zm-1.877-7.384c-8.211 0-10.157 4.984-11.249 10.015-1.091 5.128-.998 9.921 7.5 9.921h1.03l.256-.001h.06l1.02-.003h.018c2.244-.009 4.495-.026 5.406-.033.233-.004.461-.191.509-.42l.344-1.681.067-.327.41-2.006c.047-.229-.106-.418-.341-.418h-7.639c-3.039 0-3.941-.807-3.608-3.181h12.211l-.001.001.008-.001c.194-.003.374-.137.445-.315l.029-.106-.001.001c1.813-6.839 1.293-11.445-6.474-11.446zM39.376 103.369l-.116.409v.001l-.922 3.268-.922 3.267c-.063.227-.308.411-.543.411h-4.88c-3.702 0-4.604-2.896-3.702-7.166.901-4.368 2.668-7.083 6.312-7.358 4.98-.376 5.976 3.126 4.773 7.168zm3.348 7.105s2.301-5.588 2.823-8.814c.713-4.319-1.45-10.585-9.804-10.585-8.306 0-11.914 5.981-13.29 12.484-1.376 6.55.427 12.293 8.686 12.246l6.516-.024 6.089-.022c.234-.002.474-.188.534-.414l1.061-4.046c.059-.228-.084-.414-.319-.416l-1.017-.006-1.017-.006c-.199-.001-.313-.131-.289-.302l.027-.095zM83.844 106.733c0 .155-.125.281-.28.281-.154 0-.28-.126-.28-.281 0-.154.125-.279.28-.279.155 0 .28.125.28.279z"></path>
</symbol>

<symbol id="pl-mysql" viewBox="0 0 128 128">
<title>mysql</title>
<path fill="#00618A" d="M2.001 90.458h4.108v-16.223l6.36 14.143c.75 1.712 1.777 2.317 3.792 2.317s3.003-.605 3.753-2.317l6.36-14.143v16.223h4.108v-16.196c0-1.58-.632-2.345-1.936-2.739-3.121-.974-5.215-.131-6.163 1.976l-6.241 13.958-6.043-13.959c-.909-2.106-3.042-2.949-6.163-1.976-1.304.395-1.936 1.159-1.936 2.739v16.197zM33.899 77.252h4.107v8.938c-.038.485.156 1.625 2.406 1.661 1.148.018 8.862 0 8.934 0v-10.643h4.117c.019 0-.004 14.514-.004 14.574.022 3.58-4.441 4.357-6.499 4.417h-12.972v-2.764c.022 0 12.963.003 12.995-.001 2.645-.279 2.332-1.593 2.331-2.035v-1.078h-8.731c-4.062-.037-6.65-1.81-6.683-3.85-.002-.187.089-9.129-.001-9.219z"></path><path fill="#E48E00" d="M56.63 90.458h11.812c1.383 0 2.727-.289 3.793-.789 1.777-.816 2.646-1.922 2.646-3.372v-3.002c0-1.185-.987-2.292-2.923-3.028-1.027-.396-2.292-.605-3.517-.605h-4.978c-1.659 0-2.449-.5-2.646-1.606-.039-.132-.039-.237-.039-.369v-1.87c0-.105 0-.211.039-.342.197-.843.632-1.08 2.094-1.212l.395-.026h11.733v-2.738h-11.535c-1.659 0-2.528.105-3.318.342-2.449.764-3.517 1.975-3.517 4.082v2.396c0 1.844 2.095 3.424 5.61 3.793.396.025.79.053 1.185.053h4.267c.158 0 .316 0 .435.025 1.304.105 1.856.343 2.252.816.237.237.315.475.315.737v2.397c0 .289-.197.658-.592.974-.355.316-.948.527-1.738.58l-.435.026h-11.338v2.738zM100.511 85.692c0 2.817 2.094 4.397 6.32 4.714.395.026.79.052 1.185.052h10.706v-2.738h-10.784c-2.41 0-3.318-.606-3.318-2.055v-14.168h-4.108v14.195zM77.503 85.834v-9.765c0-2.48 1.742-3.985 5.186-4.46.356-.053.753-.079 1.108-.079h7.799c.396 0 .752.026 1.147.079 3.444.475 5.187 1.979 5.187 4.46v9.765c0 2.014-.74 3.09-2.445 3.792l4.048 3.653h-4.771l-3.274-2.956-3.296.209h-4.395c-.752 0-1.543-.105-2.414-.343-2.613-.712-3.88-2.085-3.88-4.355zm4.434-.237c0 .132.039.265.079.423.237 1.135 1.307 1.768 2.929 1.768h3.732l-3.428-3.095h4.771l2.989 2.7c.552-.295.914-.743 1.041-1.32.039-.132.039-.264.039-.396v-9.368c0-.105 0-.238-.039-.37-.238-1.056-1.307-1.662-2.89-1.662h-6.216c-1.82 0-3.008.792-3.008 2.032v9.288z"></path><path fill="#00618A" d="M122.336 66.952c-2.525-.069-4.454.166-6.104.861-.469.198-1.216.203-1.292.79.257.271.297.674.502 1.006.394.637 1.059 1.491 1.652 1.938.647.489 1.315 1.013 2.011 1.437 1.235.754 2.615 1.184 3.806 1.938.701.446 1.397 1.006 2.082 1.509.339.247.565.634 1.006.789v-.071c-.231-.294-.291-.698-.503-1.006l-.934-.934c-.913-1.212-2.071-2.275-3.304-3.159-.982-.705-3.18-1.658-3.59-2.801l-.072-.071c.696-.079 1.512-.331 2.154-.503 1.08-.29 2.045-.215 3.16-.503l1.508-.432v-.286c-.563-.578-.966-1.344-1.58-1.867-1.607-1.369-3.363-2.737-5.17-3.879-1.002-.632-2.241-1.043-3.304-1.579-.356-.181-.984-.274-1.221-.575-.559-.711-.862-1.612-1.293-2.441-.9-1.735-1.786-3.631-2.585-5.458-.544-1.245-.9-2.473-1.579-3.59-3.261-5.361-6.771-8.597-12.208-11.777-1.157-.677-2.55-.943-4.021-1.292l-2.37-.144c-.481-.201-.983-.791-1.436-1.077-1.802-1.138-6.422-3.613-7.756-.358-.842 2.054 1.26 4.058 2.011 5.099.527.73 1.203 1.548 1.58 2.369.248.54.29 1.081.503 1.652.521 1.406.976 2.937 1.651 4.236.341.658.718 1.351 1.149 1.939.264.36.718.52.789 1.077-.443.62-.469 1.584-.718 2.369-1.122 3.539-.699 7.938.934 10.557.501.805 1.681 2.529 3.303 1.867 1.419-.578 1.103-2.369 1.509-3.95.092-.357.035-.621.215-.861v.072l1.293 2.585c.957 1.541 2.654 3.15 4.093 4.237.746.563 1.334 1.538 2.298 1.867v-.073h-.071c-.188-.291-.479-.411-.719-.646-.562-.551-1.187-1.235-1.651-1.867-1.309-1.776-2.465-3.721-3.519-5.745-.503-.966-.94-2.032-1.364-3.016-.164-.379-.162-.953-.502-1.148-.466.72-1.149 1.303-1.509 2.154-.574 1.36-.648 3.019-.861 4.739l-.144.071c-1.001-.241-1.352-1.271-1.724-2.154-.94-2.233-1.115-5.83-.287-8.401.214-.666 1.181-2.761.789-3.376-.187-.613-.804-.967-1.148-1.437-.427-.579-.854-1.341-1.149-2.011-.77-1.741-1.129-3.696-1.938-5.457-.388-.842-1.042-1.693-1.58-2.441-.595-.83-1.262-1.44-1.724-2.442-.164-.356-.387-.927-.144-1.293.077-.247.188-.35.432-.431.416-.321 1.576.107 2.01.287 1.152.479 2.113.934 3.089 1.58.468.311.941.911 1.508 1.077h.646c1.011.232 2.144.071 3.088.358 1.67.508 3.166 1.297 4.524 2.155 4.139 2.614 7.522 6.334 9.838 10.772.372.715.534 1.396.861 2.154.662 1.528 1.496 3.101 2.154 4.596.657 1.491 1.298 2.996 2.227 4.237.488.652 2.374 1.002 3.231 1.364.601.254 1.585.519 2.154.861 1.087.656 2.141 1.437 3.16 2.155.509.362 2.076 1.149 2.154 1.798zM90.237 39.593c-.526-.01-.899.058-1.293.144v.071h.072c.251.517.694.849 1.005 1.293l.719 1.508.071-.071c.445-.313.648-.814.646-1.58-.179-.188-.205-.423-.359-.646-.204-.3-.602-.468-.861-.719z"></path>
</symbol>

<symbol id="pl-webpack" viewBox="0 0 128 128">
<title>webpack</title>
<path class="cls-1" d="M117.29,98.1,66.24,127V104.49L98,87,117.29,98.1Zm3.5-3.16V34.55L102.11,45.35V84.16l18.67,10.77ZM10.71,98.1l51,28.88V104.49L29.94,87Zm-3.5-3.16V34.55L25.89,45.35V84.16Zm2.19-64.3L61.76,1V22.76L28.21,41.21l-.27.15Zm109.18,0L66.24,1V22.76L99.79,41.2l.27.15,18.54-10.71Z"></path><path class="cls-1" d="M61.76,99.37,30.37,82.1V47.92L61.76,66Zm4.48,0L97.63,82.12V47.92L66.24,66ZM32.5,44,64,26.66,95.5,44,64,62.16,32.5,44Z"></path>
</symbol>

<symbol id="pl-wordpress" viewBox="0 0 128 128">
<title>wordpress</title>
<path fill-rule="evenodd" clip-rule="evenodd" fill="#337BA2" d="M43.257 121.233c.079 1.018.029 2.071.299 3.037.115.408.9.629 1.381.935l.625.401c-.235.137-.469.389-.707.392-1.866.033-3.732.032-5.598.002-.248-.004-.491-.237-.735-.364.198-.143.388-.391.597-.408 1.251-.105 1.632-.865 1.626-1.989-.011-2.066-.006-4.134.003-6.202.005-1.152-.322-1.993-1.679-2.045-.188-.008-.366-.296-.548-.453.182-.111.366-.321.546-.318 2.39.029 4.79-.024 7.167.177 1.873.159 3.107 1.455 3.234 2.949.138 1.639-.703 2.764-2.605 3.486l-.729.272c1.225 1.158 2.31 2.29 3.516 3.272.535.437 1.293.697 1.989.817 1.393.238 2.149-.361 2.187-1.742.061-2.229.032-4.461.011-6.691-.01-1.022-.449-1.697-1.589-1.753-.215-.01-.42-.253-.629-.388.239-.14.478-.4.715-.399 2.432.02 4.875-.055 7.291.161 4.123.366 6.42 3.797 5.214 7.588-.735 2.312-2.495 3.619-4.759 3.773-3.958.27-7.938.215-11.909.243-.316.002-.706-.341-.944-.623-.914-1.085-1.776-2.213-2.668-3.316-.27-.334-.571-.641-.858-.961l-.444.147zm13.119-5.869c0 2.785-.034 5.484.036 8.18.011.414.41 1.039.78 1.187 1.457.581 3.812-.368 4.47-1.842.881-1.973.988-4.05-.203-5.922-1.175-1.847-3.132-1.663-5.083-1.603zm-13.021 4.561c1.262.032 2.653.313 3.192-1.073.302-.777.234-1.982-.183-2.69-.633-1.076-1.906-.888-3.01-.752l.001 4.515z"></path><path fill-rule="evenodd" clip-rule="evenodd" fill="#515151" d="M96.77 119.35c.834-.18 1.661-.154 2.198-.537.451-.32.563-1.116.908-1.886.199.357.386.539.39.724.025 1.38.03 2.761 0 4.141-.005.216-.226.427-.347.641-.136-.114-.339-.2-.399-.346-.733-1.771-.729-1.772-2.843-1.583.309 1.382-.763 3.149.89 4.058.843.463 2.203.371 3.189.068.841-.256 1.48-1.171 2.212-1.798v3.096c-.405.036-.712.086-1.021.086-4.141.006-8.282-.012-12.422.019-.714.006-1.197-.174-1.633-.773-.857-1.182-1.799-2.302-2.725-3.432-.232-.283-.534-.508-1.021-.962 0 1.154-.042 1.981.012 2.802.056.858.469 1.427 1.418 1.534.279.032.529.325.792.5-.271.105-.54.298-.812.303-1.827.026-3.653.025-5.48.001-.28-.004-.558-.173-.866-.275l.156-.303c2.244-.906 2.25-.906 2.248-3.508-.002-1.623-.014-3.246-.039-4.87-.017-1.121-.321-2.01-1.689-2.058-.197-.007-.384-.287-.577-.441.226-.113.453-.325.678-.323 2.311.022 4.635-.054 6.93.16 2.512.234 4.065 2.329 3.132 4.257-.51 1.053-1.688 1.783-2.725 2.818.984.9 2.117 2.194 3.491 3.135 1.941 1.33 3.268.571 3.317-1.748.041-1.947-.007-3.896-.015-5.845-.004-1.155-.361-1.994-1.717-2.013-.185-.003-.367-.2-.586-.33.705-.52 7.499-.709 10.448-.332l.19 3.214-.333.136c-.686-.717-.601-2.199-2.02-2.204-1.084-.005-2.168-.119-3.332-.189.003 1.356.003 2.59.003 4.063zm-12.647.566c2.61.105 3.646-.603 3.584-2.364-.061-1.698-1.195-2.383-3.584-2.121v4.485z"></path><path fill-rule="evenodd" clip-rule="evenodd" fill="#3179A1" d="M11.555 120.682c.996-2.947 1.979-5.897 3.003-8.834.141-.404.486-.737.737-1.104.248.378.587.725.729 1.14.931 2.719 1.817 5.451 2.722 8.179.072.219.165.43.375.969.928-2.813 1.787-5.308 2.564-7.829.27-.873-.081-1.504-1.097-1.618-.335-.039-.66-.17-1.051-.274.676-.749 5.957-.804 6.827-.108-.236.112-.424.271-.618.279-1.65.064-2.414 1.097-2.884 2.521-1.258 3.81-2.54 7.611-3.817 11.415-.133.395-.3.778-.452 1.166l-.421.03-3.579-10.821-3.619 10.788-.354.022c-.185-.401-.412-.79-.547-1.207-1.167-3.581-2.319-7.167-3.474-10.751-.495-1.539-.99-3.069-3.012-3.167-.132-.006-.253-.229-.38-.35.158-.13.316-.373.476-.375 2.272-.024 4.546-.024 6.818.001.158.001.313.247.47.379-.169.126-.319.309-.508.367-1.82.55-1.951.761-1.378 2.526.723 2.233 1.468 4.457 2.204 6.686l.266-.03z"></path><path fill-rule="evenodd" clip-rule="evenodd" fill="#4D4D4D" d="M65.484 111.25c.279-.241.435-.494.587-.491 2.957.044 5.938-.093 8.864.247 2.768.321 4.301 2.919 3.466 5.359-.748 2.189-2.593 2.874-4.68 3.064-.881.081-1.776.013-2.824.013.093 1.453.14 2.78.275 4.098.113 1.114.863 1.56 1.923 1.65.239.021.457.288.684.442-.25.126-.498.36-.75.363-2.191.029-4.384.028-6.575.002-.263-.003-.523-.219-.784-.336.218-.165.432-.463.656-.472 1.463-.056 2.012-.964 2.03-2.235.044-3.081.04-6.162.002-9.243-.016-1.31-.649-2.148-2.072-2.206-.212-.008-.422-.13-.802-.255zm5.523 6.706c2.682.278 3.703.022 4.349-1.167.648-1.192.65-2.439-.116-3.566-1.059-1.559-2.679-1.098-4.233-1.154v5.887z"></path><path fill-rule="evenodd" clip-rule="evenodd" fill="#3279A1" d="M31.076 126.463c-2.396-.104-4.348-.856-5.794-2.647-2.053-2.542-1.741-5.994.711-8.192 2.645-2.37 7.018-2.472 9.733-.171 1.838 1.559 2.709 3.533 2.111 5.953-.675 2.73-2.601 4.192-5.218 4.856-.546.137-1.122.149-1.543.201zm4.544-6.249l-.224-.147c-.149-.709-.236-1.439-.458-2.125-.642-1.971-1.986-2.945-3.963-2.949-1.97-.004-3.295.975-3.939 2.967-.572 1.771-.498 3.526.383 5.18 1.315 2.468 4.829 2.931 6.549.736.802-1.023 1.116-2.43 1.652-3.662z"></path><path fill-rule="evenodd" clip-rule="evenodd" fill="#505050" d="M122.748 114.317l.893-.782v4.376l-.259.195c-.209-.295-.498-.562-.615-.891-.591-1.655-1.865-2.553-3.319-2.117-.499.149-1.099.649-1.232 1.11-.109.376.285 1.12.671 1.374 1.008.664 2.131 1.156 3.214 1.703 2.356 1.192 3.198 2.845 2.401 4.736-.809 1.921-3.263 2.915-5.462 2.173-.606-.206-1.167-.544-1.728-.811l-.857 1.126-.379-.116c0-1.477-.009-2.954.015-4.431.002-.143.215-.282.33-.423.18.218.448.41.527.66.523 1.656 1.53 2.756 3.325 2.94 1.023.105 2.023-.021 2.378-1.187.324-1.067-.42-1.669-1.219-2.124-.879-.5-1.808-.909-2.708-1.37-.395-.203-.798-.404-1.153-.665-1.257-.927-1.753-2.263-1.381-3.618.332-1.211 1.523-2.237 2.997-2.28 1.091-.031 2.195.25 3.561.422zM106.479 125.344c-.166.33-.258.607-.429.821-.103.128-.356.25-.49.208-.127-.04-.262-.294-.265-.456-.021-1.299-.021-2.599.001-3.896.002-.159.178-.314.274-.471.184.117.446.193.537.362.169.314.208.696.356 1.024.668 1.482 2.021 2.409 3.573 2.184.649-.093 1.45-.586 1.772-1.138.434-.741-.086-1.504-.814-1.925-.979-.566-1.993-1.075-3.009-1.571-2.297-1.121-3.266-2.972-2.443-4.719.818-1.737 3.33-2.46 5.429-1.556.256.11.499.25.7.354l1.078-.886c.113.317.185.426.186.535.008 1.216.005 2.431.005 3.646l-.317.212c-.211-.27-.504-.509-.619-.814-.573-1.532-1.48-2.381-2.81-2.219-.624.075-1.419.504-1.726 1.018-.45.755.2 1.361.885 1.729.963.519 1.949.992 2.926 1.483 2.418 1.213 3.269 2.898 2.434 4.824-.813 1.876-3.346 2.847-5.517 2.077-.564-.199-1.087-.52-1.717-.826z"></path><path fill-rule="evenodd" clip-rule="evenodd" fill="#494949" d="M65.261 1.395c-26.781-.478-49.158 21.253-49.165 47.605-.008 27.11 21.338 48.739 48.077 48.699 26.49-.039 47.932-21.587 47.932-48.167-.001-26.148-21.345-47.682-46.844-48.137zm-1.148 93.887c-25.326.006-45.694-20.529-45.693-46.067.001-24.88 20.685-45.48 45.674-45.489 25.432-.008 45.695 20.654 45.687 46.587-.008 24.483-20.807 44.964-45.668 44.969zM88.508 35.935c-.994-1.638-2.216-3.227-2.778-5.013-.64-2.032-1.171-4.345-.832-6.382.576-3.454 3.225-5.169 6.812-5.497-19.624-18.213-50.462-11.694-61.825 8.095 4.374-.203 8.55-.468 12.729-.524.791-.011 2.1.657 2.286 1.277.416 1.385-.748 1.868-1.986 1.963-1.301.102-2.604.199-4.115.314 4.99 14.865 9.905 29.509 14.935 44.494.359-.587.507-.752.572-.945 2.762-8.255 5.54-16.505 8.232-24.784.246-.755.124-1.755-.146-2.531-1.424-4.111-3.13-8.133-4.379-12.294-.855-2.849-1.988-4.692-5.355-4.362-.574.056-1.273-1.178-1.916-1.816.777-.463 1.548-1.316 2.332-1.328 6.857-.104 13.716-.104 20.572.006.786.013 1.557.889 2.335 1.364-.681.622-1.267 1.554-2.063 1.794-1.276.385-2.691.312-4.218.448 4.995 14.857 9.887 29.412 14.953 44.484 2.266-7.524 4.374-14.434 6.422-21.36 1.83-6.182.74-11.957-2.567-17.403zM52.719 88.149c-.092.267-.097.563-.168 1.007 8.458 2.344 16.75 2.175 25.24-.685l-12.968-35.52c-4.151 12.064-8.131 23.63-12.104 35.198zM46.184 86.543c-6.554-17.979-13.022-35.724-19.538-53.596-8.814 17.217-2.109 43.486 19.538 53.596zM100.636 31.14c-.27 2.994-.082 6.327-.941 9.362-2.023 7.152-4.496 14.181-6.877 21.229-2.588 7.66-5.28 15.286-7.927 22.927 12.437-7.372 19.271-18.253 20.359-32.555.62-8.14-2.188-19.412-4.614-20.963z"></path>
</symbol>

</defs>
</svg>